<?xml version="1.0" encoding="utf-8"?>
<!-- Generator: Adobe Illustrator 15.0.0, SVG Export Plug-In . SVG Version: 6.00 Build 0)  -->
<!DOCTYPE svg PUBLIC "-//W3C//DTD SVG 1.1//EN" "http://www.w3.org/Graphics/SVG/1.1/DTD/svg11.dtd">
<svg version="1.1" id="Layer_1" xmlns="http://www.w3.org/2000/svg" xmlns:xlink="http://www.w3.org/1999/xlink" x="0px" y="0px"
	 width="100%" viewBox="0 0 800 147" enable-background="new 0 0 800 147" xml:space="preserve">
<g>
	<path fill="#FFFFFF" d="M63.8,54.4c0-0.3,0-0.7,0-1c0-0.4,0-0.7,0-1c0-0.3,0-0.6,0-0.7c0-3,0.1-6.1,0.2-9.3
		c0.1-3.2,0.2-6.5,0.3-9.8c0.1-3.3,0.2-6.6,0.2-9.9c0.1-3.3,0.1-6.5,0-9.6c0.2-0.7,0.5-1.4,0.9-2c0.4-0.6,0.9-1.2,1.5-1.7
		c0.6-0.5,1.2-0.9,1.9-1.2c0.7-0.3,1.4-0.5,2.1-0.5c1.5,0,2.9,0.5,4.3,1.4c1.4,0.9,2.7,2.1,4,3.5c1.2,1.5,2.4,3.1,3.5,4.9
		c1.1,1.8,2.1,3.6,3,5.4c0.9,1.8,1.7,3.5,2.3,5.1c0.6,1.6,1.2,2.9,1.6,4l0.9-0.8c0-0.8,0-2,0-3.5c0-1.5,0-3.1,0.1-4.9
		c0-1.8,0.2-3.6,0.3-5.5c0.2-1.9,0.5-3.6,0.9-5.1c0.4-1.6,1-2.9,1.8-3.9c0.7-1.1,1.7-1.7,2.9-1.9c0.6-0.1,1.2,0,1.8,0.4
		c0.6,0.3,1.3,0.8,1.8,1.2c0.6,0.5,1.1,1,1.5,1.5c0.4,0.5,0.8,0.9,0.9,1.2c0.1,0.3,0.2,0.9,0.4,1.8c0.2,0.9,0.3,2,0.5,3.3
		c0.2,1.3,0.4,2.6,0.5,4c0.2,1.4,0.3,2.8,0.5,4c0.2,1.3,0.3,2.4,0.4,3.3c0.1,0.9,0.2,1.6,0.3,1.8c0,0,0,0.4,0,1.1c0,0.7,0,1.3,0,1.6
		c0,1.5,0,3.1,0,5c0,1.8-0.1,3.6-0.3,5.5c-0.2,1.9-0.5,3.6-0.9,5.4c-0.4,1.7-1,3.3-1.8,4.7c-0.8,1.4-1.8,2.5-3.1,3.3
		c-1.3,0.8-2.8,1.2-4.7,1.2c-1.1,0-2.2-0.5-3.3-1.4c-1.1-0.9-2.1-2.2-3.1-3.6c-1-1.5-2-3.1-3-4.9c-0.9-1.8-1.9-3.5-2.7-5.2
		c-0.9-1.7-1.7-3.2-2.6-4.5c-0.8-1.3-1.6-2.3-2.4-3c-0.1,1.1-0.1,2.4-0.1,4s0,3.2,0,5c0,1.7-0.2,3.5-0.4,5.2c-0.2,1.8-0.5,3.3-1,4.7
		c-0.5,1.4-1.1,2.5-1.9,3.4c-0.8,0.9-1.9,1.3-3.3,1.3c-0.7,0-1.4,0-2-0.1c-0.6-0.1-1.1-0.2-1.7-0.4c-0.6-0.2-1.1-0.5-1.7-0.8
		c-0.6-0.4-1.2-0.8-1.9-1.4C63.8,54.9,63.8,54.7,63.8,54.4z"/>
	<path fill="#FFFFFF" d="M107.6,23.3c0.4-2.1,1-4,1.9-5.8c0.9-1.7,2.1-3.3,3.5-4.7c1.4-1.4,3.2-2.5,5.2-3.4c0.2,0,0.6,0,1.1,0
		c0.6,0,1.1,0,1.7,0c0.6,0,1.2,0,1.7,0c0.5,0,0.9,0,1.1,0c1.3,0,2.7,0,4.3,0c1.6,0,3,0.1,4.4,0.5c1.4,0.3,2.5,0.9,3.4,1.9
		c0.9,0.9,1.4,2.3,1.4,4.2c0,0.4-0.1,0.8-0.3,1.4c-0.2,0.6-0.4,1.1-0.8,1.6c-0.3,0.5-0.7,0.9-1.1,1.3c-0.4,0.3-0.9,0.5-1.4,0.5H120
		c-0.1,0-0.2,0.2-0.5,0.5c-0.2,0.3-0.3,0.6-0.4,0.8c0,0.1-0.1,0.4,0,0.7c0,0.3,0.1,0.7,0.1,1c0,0.3,0.1,0.7,0.1,1
		c0,0.3,0.1,0.5,0.1,0.7c1,0,1.9-0.1,2.8-0.2c0.9-0.2,1.8-0.3,2.7-0.6c0.9-0.2,1.8-0.4,2.7-0.6c0.9-0.2,1.8-0.2,2.7-0.2
		c0.5,0,1.2,0.1,2.1,0.2c0.9,0.2,1.7,0.4,2.6,0.8c0.9,0.4,1.6,0.8,2.2,1.4c0.6,0.6,0.9,1.2,0.9,2.1c0,2.1-0.4,3.6-1.3,4.7
		c-0.9,1-1.9,1.7-3.2,2.2c-1.3,0.4-2.7,0.7-4.2,0.7c-1.5,0.1-2.9,0.2-4.2,0.5c-1.3,0.2-2.4,0.7-3.2,1.3c-0.9,0.6-1.3,1.8-1.3,3.3
		c0,0.6,0.2,1.1,0.7,1.4c0.4,0.3,1,0.4,1.6,0.4c0,0,0.2,0,0.3-0.1c0.3,0,0.9-0.2,1.9-0.5c0.9-0.3,1.9-0.6,3.1-0.9
		c1.1-0.3,2.2-0.6,3.2-0.8c1-0.3,1.8-0.4,2.3-0.4c0.6,0,1.3,0.1,2,0.4c0.7,0.3,1.4,0.7,2,1.1c0.6,0.5,1.1,1.1,1.5,1.7
		c0.4,0.7,0.6,1.4,0.6,2.1c0,2.3-0.7,4.1-2.1,5.3c-1.4,1.3-3.1,2.3-5.1,3c-2,0.7-4.1,1.1-6.3,1.3c-2.2,0.2-4,0.3-5.6,0.3
		c-0.2,0-0.5,0-1,0c-0.5,0-1,0-1.6,0c-0.6,0-1.1,0-1.6,0c-0.5,0-0.8,0-1,0c-1.7-0.5-3-1.3-4.1-2.4c-1.1-1.1-1.9-2.3-2.6-3.7
		c-0.6-1.4-1.1-2.9-1.4-4.5c-0.3-1.6-0.5-3.3-0.6-5c-0.1-1.7-0.1-3.3-0.1-5c0-1.6,0-3.2,0-4.5C107,27.6,107.2,25.4,107.6,23.3z"/>
	<path fill="#FFFFFF" d="M155.3,53.3c-0.5-1.2-1-2.6-1.6-4.1c-0.6-1.5-1.1-3.1-1.7-4.8c-0.6-1.7-1.2-3.3-1.7-4.8
		c-0.5-1.5-1-2.9-1.5-4.1c-0.5-1.2-0.8-2-1.1-2.6c-0.6-1.1-1.2-2.5-1.9-4.1c-0.7-1.6-1.5-3.3-2.2-5.1c-0.7-1.8-1.3-3.5-1.7-5.3
		c-0.5-1.7-0.7-3.3-0.7-4.6c0-0.7,0.2-1.3,0.5-1.9c0.3-0.6,0.8-1.1,1.4-1.5c0.6-0.4,1.2-0.7,1.8-1c0.7-0.2,1.3-0.3,2-0.3
		c1.7,0,3.1,0.6,4.3,1.9c1.2,1.3,2.3,2.9,3.2,4.9c0.9,2,1.7,4.2,2.3,6.7c0.6,2.5,1.2,4.9,1.8,7.3c0.5,2.4,1,4.6,1.5,6.7
		c0.5,2.1,1,3.7,1.6,4.9h0.8c0.1-0.3,0.3-1.1,0.7-2.4c0.3-1.3,0.7-2.8,1.2-4.5c0.4-1.8,0.9-3.6,1.5-5.6c0.5-2,1-3.9,1.5-5.6
		c0.5-1.8,0.9-3.3,1.2-4.5c0.3-1.3,0.6-2.1,0.7-2.4c0.2-0.7,0.6-1.4,1-2.3c0.4-0.8,1-1.6,1.6-2.3c0.6-0.7,1.3-1.3,2-1.8
		c0.7-0.5,1.5-0.7,2.3-0.7c1.3,0,2.2,0.2,2.9,0.6c0.7,0.4,1.2,0.9,1.5,1.7c0.3,0.7,0.5,1.6,0.5,2.5c0,1,0,2,0,3.2
		c0,3.8-0.4,7.4-1.3,11.1c-0.9,3.6-2,7.1-3.5,10.5c-1.5,3.4-3.1,6.6-5,9.6c-1.9,3-3.9,5.8-5.9,8.2c-0.1,0-0.4,0-0.7,0.1
		c-0.3,0.1-0.7,0.2-1,0.3c-0.4,0.1-0.7,0.2-1,0.3c-0.3,0.1-0.6,0.1-0.7,0.1c-0.7,0-1.6-0.1-2.7-0.3c-1.1-0.2-1.9-0.7-2.5-1.4
		C156.2,55.3,155.8,54.5,155.3,53.3z"/>
	<path fill="#FFFFFF" d="M182.9,23.3c0.4-2.1,1-4,1.9-5.8c0.9-1.7,2.1-3.3,3.5-4.7c1.4-1.4,3.2-2.5,5.2-3.4c0.2,0,0.6,0,1.1,0
		c0.6,0,1.1,0,1.7,0c0.6,0,1.2,0,1.7,0c0.5,0,0.9,0,1.1,0c1.3,0,2.7,0,4.3,0c1.6,0,3,0.1,4.4,0.5c1.4,0.3,2.5,0.9,3.4,1.9
		c0.9,0.9,1.4,2.3,1.4,4.2c0,0.4-0.1,0.8-0.3,1.4c-0.2,0.6-0.4,1.1-0.8,1.6c-0.3,0.5-0.7,0.9-1.1,1.3c-0.4,0.3-0.9,0.5-1.4,0.5
		h-13.8c-0.1,0-0.2,0.2-0.5,0.5c-0.2,0.3-0.3,0.6-0.4,0.8c0,0.1-0.1,0.4,0,0.7c0,0.3,0.1,0.7,0.1,1c0,0.3,0.1,0.7,0.1,1
		c0,0.3,0.1,0.5,0.1,0.7c1,0,1.9-0.1,2.8-0.2c0.9-0.2,1.8-0.3,2.7-0.6c0.9-0.2,1.8-0.4,2.7-0.6c0.9-0.2,1.8-0.2,2.7-0.2
		c0.5,0,1.2,0.1,2.1,0.2c0.9,0.2,1.7,0.4,2.6,0.8c0.9,0.4,1.6,0.8,2.2,1.4c0.6,0.6,0.9,1.2,0.9,2.1c0,2.1-0.4,3.6-1.3,4.7
		c-0.9,1-1.9,1.7-3.2,2.2c-1.3,0.4-2.7,0.7-4.2,0.7c-1.5,0.1-2.9,0.2-4.2,0.5c-1.3,0.2-2.4,0.7-3.2,1.3c-0.9,0.6-1.3,1.8-1.3,3.3
		c0,0.6,0.2,1.1,0.7,1.4c0.4,0.3,1,0.4,1.6,0.4c0,0,0.2,0,0.3-0.1c0.3,0,0.9-0.2,1.9-0.5c0.9-0.3,1.9-0.6,3.1-0.9
		c1.1-0.3,2.2-0.6,3.2-0.8c1-0.3,1.8-0.4,2.3-0.4c0.6,0,1.3,0.1,2,0.4c0.7,0.3,1.4,0.7,2,1.1c0.6,0.5,1.1,1.1,1.5,1.7
		c0.4,0.7,0.6,1.4,0.6,2.1c0,2.3-0.7,4.1-2.1,5.3c-1.4,1.3-3.1,2.3-5.1,3c-2,0.7-4.1,1.1-6.2,1.3c-2.2,0.2-4,0.3-5.6,0.3
		c-0.2,0-0.5,0-1,0c-0.5,0-1,0-1.6,0c-0.6,0-1.1,0-1.6,0c-0.5,0-0.8,0-1,0c-1.7-0.5-3-1.3-4.1-2.4c-1.1-1.1-1.9-2.3-2.6-3.7
		c-0.6-1.4-1.1-2.9-1.4-4.5c-0.3-1.6-0.5-3.3-0.6-5c-0.1-1.7-0.1-3.3-0.1-5c0-1.6,0-3.2,0-4.5C182.3,27.6,182.5,25.4,182.9,23.3z"/>
	<path fill="#FFFFFF" d="M216.9,42.6c0.1-3.3,0.3-6.6,0.4-10.1c0.2-3.4,0.3-6.8,0.5-10.1c0.1-3.3,0.2-6.3,0.3-8.9
		c0.4-1.3,1.2-2.3,2.3-3.2c1.1-0.8,2.3-1.4,3.7-1.9c1.4-0.4,2.8-0.7,4.2-0.9c1.4-0.1,2.7-0.2,3.8-0.2c2,0,4,0.2,6,0.7
		c2,0.5,3.9,1.2,5.6,2.2c1.7,1,3.1,2.3,4.1,3.8c1.1,1.6,1.6,3.4,1.7,5.6c0,1.9-0.1,3.6-0.6,4.9c-0.4,1.3-1,2.4-1.8,3.4
		c-0.8,0.9-1.7,1.8-2.8,2.5c-1.1,0.7-2.4,1.5-3.8,2.3c0.2,0.2,0.6,0.6,1.1,1.4c0.6,0.7,1.2,1.6,1.9,2.6c0.7,1,1.5,2.1,2.3,3.2
		c0.8,1.1,1.5,2.2,2.3,3.2c0.7,1,1.3,1.9,1.9,2.6c0.5,0.7,0.9,1.2,1.1,1.4c0.1,0.1,0.2,0.3,0.4,0.5c0.2,0.2,0.3,0.5,0.5,0.8
		c0.2,0.3,0.4,0.5,0.5,0.8c0.2,0.3,0.3,0.4,0.3,0.5c0,0,0.1,0.1,0.2,0.3c0.1,0.3,0.2,0.6,0.2,1c0.1,0.4,0.1,0.8,0,1.2
		c0,0.4-0.2,0.7-0.5,1c-1,1-2.1,1.7-3.4,2c-1.3,0.4-2.6,0.6-4,0.6c-0.9,0-1.8-0.4-2.6-1.1c-0.8-0.8-1.6-1.7-2.4-2.8
		c-0.8-1.1-1.5-2.4-2.2-3.8c-0.7-1.4-1.4-2.6-2.2-3.9c-0.7-1.2-1.5-2.2-2.2-3.1c-0.8-0.9-1.6-1.4-2.4-1.6c-0.1,0.6-0.2,1.5-0.2,2.6
		c0,1.1-0.1,2.4-0.1,3.7c-0.1,1.3-0.2,2.7-0.3,4.1c-0.2,1.4-0.4,2.7-0.8,3.8c-0.3,1.1-0.8,2.1-1.5,2.8c-0.6,0.7-1.4,1.1-2.4,1.1
		c-1,0-2.1-0.1-3.2-0.3c-1.1-0.2-2.1-0.5-3-1c-0.9-0.5-1.6-1.1-2.2-1.9c-0.6-0.8-0.9-1.8-0.9-3.1C216.8,48.9,216.8,45.9,216.9,42.6z
		 M230.4,19.9c-0.5,0.7-0.7,1.5-0.8,2.3c-0.1,0.9,0,2,0.1,3.4c2.4,0,4.2-0.3,5.3-0.8c1.2-0.5,1.7-1.5,1.7-3c0-0.7-0.4-1.4-1.1-2.1
		c-0.7-0.6-1.7-1-3-1C231.6,18.8,230.8,19.2,230.4,19.9z"/>
	<path fill="#FFFFFF" d="M283.5,49c0.1-1.1,0.7-1.8,1.7-2.2c1-0.4,2.3-0.7,3.9-0.8c1.6-0.1,3.3-0.1,5.3-0.1c2,0,4,0,6.1-0.2
		c-1.2-1.2-2.5-2.3-3.8-3.2c-1.3-0.9-2.7-1.9-4-2.7c-1.3-0.9-2.6-1.8-3.8-2.7c-1.2-0.9-2.3-2-3.2-3.2c-0.9-1.2-1.7-2.5-2.2-4.1
		c-0.6-1.6-0.8-3.4-0.8-5.6c0-2.7,0.5-5,1.6-7c1.1-2,2.5-3.6,4.3-4.9c1.8-1.3,3.9-2.3,6.2-2.9c2.3-0.6,4.7-0.9,7.2-0.9
		c1.2,0,2.3,0.2,3.3,0.7c1.1,0.5,2,1.1,2.7,1.9c0.8,0.8,1.4,1.7,1.8,2.8c0.5,1.1,0.7,2.2,0.7,3.5c0,0.8-0.2,1.4-0.6,1.8
		c-0.4,0.4-1.1,0.9-2.1,1.5c-1.1-0.1-2.2-0.2-3.5-0.3c-1.2-0.1-2.5-0.2-3.7-0.1c-1.2,0-2.3,0.3-3.4,0.7c-1.1,0.4-1.9,1.1-2.6,2.2
		c-0.6,0-0.9,0.3-0.9,0.9c-0.1,0.6-0.1,1.1,0,1.5c0.1,0.4,0.2,0.7,0.2,0.8c0,0.7,0.4,1.4,1.2,2.2c0.8,0.8,1.8,1.6,3,2.5
		c1.2,0.9,2.5,1.8,3.8,2.8c1.4,1,2.6,2,3.8,3.1c1.2,1.1,2.2,2.3,3,3.5c0.8,1.2,1.2,2.5,1.2,3.8c0,2.1-0.4,4-1.1,5.6
		c-0.7,1.6-1.8,2.9-3.1,4c-1.3,1.1-2.9,1.9-4.7,2.4c-1.8,0.5-3.7,0.8-5.8,0.8c-1,0-2-0.1-3.2-0.2c-1.2-0.2-2.3-0.4-3.4-0.8
		c-1.1-0.4-2-0.9-2.9-1.6c-0.9-0.7-1.5-1.6-1.9-2.6L283.5,49z"/>
	<path fill="#FFFFFF" d="M327.6,41.4c-0.3,0.1-0.8,0.4-1.2,0.7c0,0.8-0.1,1.7-0.2,2.9c-0.1,1.1-0.3,2.3-0.5,3.5
		c-0.2,1.2-0.5,2.4-0.9,3.5c-0.4,1.1-0.9,2.1-1.6,2.9c-0.7,0.8-1.5,1.4-2.5,1.8c-1,0.4-2.1,0.5-3.5,0.2c0,0-0.3-0.1-0.7-0.3
		c-0.4-0.2-0.8-0.4-1.3-0.7c-0.5-0.3-1-0.5-1.5-0.8c-0.5-0.3-0.9-0.5-1.1-0.7c-0.1-0.1-0.2-0.2-0.4-0.5c-0.2-0.2-0.3-0.4-0.3-0.5
		c0-0.1,0-0.4,0-0.8c0-0.4,0-0.8,0-1.3c0-0.4,0-0.8,0-1.2c0-0.4,0-0.7,0-0.8c0-1.7,0.2-4,0.6-6.8c0.4-2.8,0.9-5.8,1.6-9
		c0.7-3.2,1.6-6.4,2.7-9.6c1.1-3.2,2.3-6.1,3.7-8.7c1.4-2.6,3-4.7,4.7-6.3c1.7-1.6,3.6-2.4,5.6-2.4c1.2,0,2.4,0.5,3.6,1.5
		c1.1,1,2.2,2.3,3.2,3.9c1,1.6,2,3.5,2.9,5.7c0.9,2.1,1.7,4.4,2.4,6.7c0.7,2.4,1.4,4.8,1.9,7.2c0.6,2.4,1.1,4.7,1.5,6.9
		c0.4,2.2,0.7,4.1,0.9,5.9c0.2,1.8,0.3,3.2,0.3,4.3c0,0.2,0,0.5,0,1c0,0.5,0,1,0,1.5c0,0.5,0,1,0,1.5c0,0.5,0,0.8,0,0.9
		c-0.6,1.6-1.3,2.8-2.2,3.7c-0.8,0.9-2.1,1.4-3.8,1.4c-1.2,0-2.3-0.4-3.1-1.3c-0.8-0.9-1.5-1.9-2-3.2c-0.6-1.3-1.1-2.7-1.5-4.2
		c-0.4-1.5-0.9-2.9-1.4-4.2c-0.5-1.3-1.1-2.4-1.8-3.2c-0.7-0.9-1.6-1.3-2.7-1.4C328.3,41.2,327.9,41.2,327.6,41.4z M326,31.4
		c0.2,0.1,0.5,0.2,0.7,0.3c0.3,0,0.5,0.1,0.8,0c0.3,0,0.5,0,0.6,0c0.8,0,1.4-0.1,1.9-0.5c0.5-0.3,0.9-0.7,1.2-1.2
		c0.3-0.5,0.5-1.1,0.6-1.7c0.1-0.6,0.2-1.3,0.2-2.1c0-0.2,0-0.7-0.1-1.4c0-0.7-0.1-1.2-0.1-1.4c-0.3-0.8-0.6-1.3-1.1-1.5
		c-0.4-0.2-1-0.2-1.6-0.2c-0.8,0-1.4,0.2-1.9,0.6c-0.5,0.4-0.9,0.9-1.1,1.6c-0.3,0.6-0.4,1.3-0.5,2c-0.1,0.7-0.1,1.4-0.1,2
		c0,0.1,0,0.3,0,0.6s0,0.6,0,0.9c0,0.3,0,0.6,0,0.9c0,0.3,0,0.5,0,0.6C325.6,31.1,325.8,31.3,326,31.4z"/>
	<path fill="#FFFFFF" d="M352.2,52.7c0-0.1,0-0.2,0-0.2l11.7-16.9v-1.7c-1.3-1.2-2.9-2.4-4.7-3.7c-1.8-1.3-3.4-2.7-5-4.2
		c-1.6-1.5-2.9-3.1-4-4.8c-1.1-1.7-1.6-3.5-1.6-5.5c0-0.8,0.1-1.7,0.2-2.5c0.2-0.8,0.4-1.5,0.8-2.1c0.4-0.6,0.9-1.1,1.6-1.5
		c0.7-0.4,1.5-0.6,2.5-0.6c0.7,0,1.4,0,2.1,0.1c0.6,0.1,1.2,0.4,1.6,1c0.2,0.3,0.6,0.9,1.1,1.6c0.6,0.8,1.3,1.7,2,2.7
		c0.8,1,1.6,2.1,2.5,3.3c0.9,1.1,1.7,2.2,2.5,3.3c0.8,1,1.5,2,2,2.7c0.6,0.8,1,1.3,1.1,1.6h0.8c0.7-1.3,1.3-3,1.9-4.9
		c0.6-1.9,1.3-3.8,2.1-5.6c0.8-1.8,1.8-3.4,3-4.7c1.2-1.3,2.8-1.9,4.7-1.9c0.7,0,1.4,0.2,2,0.6c0.6,0.4,1.1,0.8,1.5,1.4
		c0.4,0.6,0.7,1.2,1,1.9c0.2,0.7,0.3,1.4,0.3,2c0,0.7-0.3,1.9-0.9,3.6c-0.6,1.6-1.4,3.5-2.4,5.7c-1,2.2-2.2,4.5-3.5,6.9
		c-1.3,2.5-2.7,5-4.2,7.5c-1.5,2.5-3,4.9-4.5,7.2c-1.6,2.3-3.1,4.4-4.5,6.1c-1.5,1.8-2.8,3.2-4.1,4.2c-1.3,1.1-2.4,1.6-3.2,1.6
		c-0.6,0-1.4-0.1-2.1-0.2c-0.8-0.1-1.5-0.3-2.1-0.7c-0.6-0.3-1.2-0.7-1.7-1.2c-0.5-0.5-0.7-1.2-0.7-2
		C352.1,52.9,352.1,52.8,352.2,52.7z"/>
	<path fill="#FFFFFF" d="M418.8,52.7c0-0.1,0-0.2,0-0.2l11.7-16.9v-1.7c-1.3-1.2-2.9-2.4-4.7-3.7c-1.8-1.3-3.4-2.7-5-4.2
		c-1.6-1.5-2.9-3.1-4-4.8c-1.1-1.7-1.6-3.5-1.6-5.5c0-0.8,0.1-1.7,0.2-2.5c0.2-0.8,0.4-1.5,0.8-2.1c0.4-0.6,0.9-1.1,1.6-1.5
		c0.7-0.4,1.5-0.6,2.5-0.6c0.7,0,1.4,0,2.1,0.1c0.6,0.1,1.2,0.4,1.6,1c0.2,0.3,0.6,0.9,1.1,1.6c0.6,0.8,1.3,1.7,2,2.7
		c0.8,1,1.6,2.1,2.5,3.3c0.9,1.1,1.7,2.2,2.5,3.3c0.8,1,1.5,2,2,2.7c0.6,0.8,1,1.3,1.1,1.6h0.8c0.7-1.3,1.3-3,1.9-4.9
		c0.6-1.9,1.3-3.8,2.1-5.6c0.8-1.8,1.8-3.4,3-4.7c1.2-1.3,2.8-1.9,4.7-1.9c0.7,0,1.4,0.2,2,0.6c0.6,0.4,1.1,0.8,1.5,1.4
		c0.4,0.6,0.7,1.2,1,1.9c0.2,0.7,0.3,1.4,0.3,2c0,0.7-0.3,1.9-0.9,3.6c-0.6,1.6-1.4,3.5-2.4,5.7c-1,2.2-2.2,4.5-3.5,6.9
		c-1.3,2.5-2.7,5-4.2,7.5c-1.5,2.5-3,4.9-4.5,7.2c-1.6,2.3-3.1,4.4-4.5,6.1c-1.5,1.8-2.8,3.2-4.1,4.2c-1.3,1.1-2.4,1.6-3.2,1.6
		c-0.6,0-1.4-0.1-2.1-0.2c-0.8-0.1-1.5-0.3-2.1-0.7c-0.6-0.3-1.2-0.7-1.7-1.2c-0.5-0.5-0.7-1.2-0.7-2
		C418.7,52.9,418.7,52.8,418.8,52.7z"/>
	<path fill="#FFFFFF" d="M455,25.7c0.8-3.1,2-6,3.6-8.5c1.6-2.5,3.6-4.6,6-6.1c2.4-1.6,5.2-2.4,8.3-2.4c2.6,0,5.1,0.4,7.3,1.2
		c2.2,0.8,4.2,2,5.8,3.5c1.6,1.6,2.9,3.5,3.8,5.8c0.9,2.3,1.4,5,1.4,8.1c0,3.5-0.6,6.9-1.7,10.3c-1.2,3.4-2.8,6.4-4.8,9.1
		c-2,2.7-4.5,4.9-7.3,6.5c-2.8,1.7-5.8,2.5-9.1,2.5c-2.8,0-5.2-0.5-7-1.6c-1.9-1.1-3.4-2.6-4.5-4.4c-1.1-1.9-1.9-4.1-2.4-6.6
		c-0.5-2.5-0.7-5.2-0.7-8C453.8,32,454.2,28.9,455,25.7z M470,39.9c0.6,0.2,1.4,0.3,2.2,0.3c1.1,0,2-0.3,2.8-0.9s1.4-1.4,1.9-2.3
		c0.5-0.9,0.8-2,1-3.1c0.2-1.1,0.3-2.2,0.3-3.3c0-0.7-0.1-1.4-0.2-2.1c-0.2-0.7-0.4-1.4-0.7-2c-0.3-0.6-0.7-1.1-1.2-1.5
		c-0.5-0.4-1.1-0.6-1.8-0.6c-1.2,0-2.2,0.3-3,0.8c-0.8,0.6-1.4,1.3-1.8,2.2c-0.4,0.9-0.7,1.9-0.8,3c-0.1,1.1-0.2,2.2-0.2,3.3
		c0,0.1,0,0.4,0,0.8c0,0.4,0,0.9,0,1.4c0,0.5,0,0.9,0.1,1.4c0,0.4,0,0.7,0,0.8C468.9,39.1,469.4,39.8,470,39.9z"/>
	<path fill="#FFFFFF" d="M501.4,8.1c0.7,0.1,1.3,0.6,1.5,1.7c0.4,1.2,0.7,2.3,1,3.2c0.2,0.9,0.4,1.7,0.5,2.5
		c0.1,0.8,0.2,1.5,0.2,2.3c0,0.8,0.1,1.7,0.1,2.7c0,1.3,0,3-0.1,4.9c-0.1,1.9-0.1,4-0.2,6c-0.1,2.1-0.1,4.1-0.2,6.1
		s-0.1,3.6-0.1,4.9c2,0.1,3.6-0.3,4.7-1.3c1.1-0.9,2-2.2,2.6-3.9c0.6-1.6,0.9-3.5,1.1-5.6c0.1-2.1,0.2-4.2,0.2-6.4
		c0-2.2,0-4.4,0-6.5c0-2.1,0.2-4,0.5-5.6c0.3-1.6,0.8-3,1.5-4c0.7-1,1.8-1.5,3.2-1.5c1.6,0,2.9,0.5,3.9,1.5c0.9,1,1.7,2.2,2.1,3.6
		c0.5,1.4,0.8,2.8,0.9,4.3c0.1,1.5,0.2,2.8,0.2,3.9c0,2-0.1,4.3-0.2,6.8c-0.1,2.6-0.4,5.2-0.8,7.9c-0.4,2.7-1,5.3-1.8,7.8
		c-0.8,2.5-1.8,4.8-3.1,6.8c-1.3,2-2.9,3.6-4.8,4.8c-1.9,1.2-4.2,1.8-6.8,1.8c0,0-0.4,0-1.1,0c-0.7,0-1.6-0.1-2.7-0.2
		c-1.1-0.1-2.3-0.3-3.6-0.6c-1.3-0.3-2.5-0.7-3.5-1.2c-1.1-0.5-2-1.2-2.7-2c-0.7-0.8-1.1-1.9-1.1-3.1l-0.1-36.6
		c0-0.9,0.2-1.7,0.6-2.4c0.4-0.7,0.9-1.2,1.6-1.6c0.6-0.4,1.3-0.7,2.1-0.9c0.8-0.2,1.6-0.3,2.4-0.3C500,8,500.7,8,501.4,8.1z"/>
	<path fill="#FFFFFF" d="M554.7,27.9c0.4-2.1,1-4.1,1.7-6.2c0.8-2.1,1.7-4.2,2.8-6.2c1.1-2,2.4-3.8,3.8-5.4c1.4-1.6,3-2.9,4.7-3.9
		c1.7-1,3.5-1.5,5.5-1.5c1.4,0,2.9,0.2,4.7,0.7c1.7,0.5,3.3,1.2,4.8,2.1c1.5,0.9,2.8,2,3.8,3.3c1,1.3,1.6,2.8,1.6,4.4
		c0,1.6-0.3,2.8-0.9,3.7c-0.6,0.8-1.4,1.4-2.4,1.8c-1,0.4-2.1,0.6-3.4,0.6c-1.3,0-2.5,0.1-3.9,0.2c-1.3,0.1-2.6,0.3-3.9,0.5
		c-1.2,0.2-2.4,0.7-3.4,1.5c-1,0.7-1.8,1.8-2.4,3.2c-0.6,1.4-0.9,3.3-0.9,5.6c0,0.9,0.1,2,0.3,3.1c0.2,1.1,0.6,2.2,1.1,3.2
		c0.5,1,1.2,1.8,2,2.5c0.8,0.7,1.9,1,3.1,1c0.1,0,0.2,0,0.3,0c0.1,0,0.2,0,0.2-0.1c0.2,0,0.8-0.2,1.7-0.5c0.9-0.3,1.9-0.5,3-0.8
		c1.1-0.3,2.1-0.6,3-0.8c0.9-0.3,1.5-0.4,1.8-0.5c0,0,0.2,0,0.4,0c0.2,0,0.4,0,0.5,0c2,0,3.4,0.5,4.1,1.5c0.8,1,1.1,2.3,1.1,3.9
		c0,1.9-0.5,3.7-1.5,5.2c-1,1.5-2.3,2.8-3.8,3.8c-1.5,1-3.2,1.8-5.1,2.3c-1.9,0.5-3.6,0.8-5.3,0.8c-3.3,0-6.3-0.6-8.8-1.9
		c-2.5-1.3-4.6-3-6.2-5.2c-1.7-2.2-2.9-4.7-3.7-7.5c-0.8-2.8-1.3-5.8-1.3-8.9C554.1,31.7,554.3,29.9,554.7,27.9z"/>
	<path fill="#FFFFFF" d="M606.7,41.4c-0.3,0.1-0.8,0.4-1.2,0.7c0,0.8-0.1,1.7-0.2,2.9c-0.1,1.1-0.3,2.3-0.5,3.5
		c-0.2,1.2-0.5,2.4-0.9,3.5c-0.4,1.1-0.9,2.1-1.6,2.9c-0.7,0.8-1.5,1.4-2.5,1.8c-1,0.4-2.1,0.5-3.5,0.2c0,0-0.3-0.1-0.7-0.3
		c-0.4-0.2-0.8-0.4-1.3-0.7c-0.5-0.3-1-0.5-1.5-0.8c-0.5-0.3-0.9-0.5-1.1-0.7c-0.1-0.1-0.2-0.2-0.4-0.5c-0.2-0.2-0.3-0.4-0.3-0.5
		c0-0.1,0-0.4,0-0.8c0-0.4,0-0.8,0-1.3c0-0.4,0-0.8,0-1.2c0-0.4,0-0.7,0-0.8c0-1.7,0.2-4,0.6-6.8c0.4-2.8,0.9-5.8,1.6-9
		c0.7-3.2,1.6-6.4,2.7-9.6c1.1-3.2,2.3-6.1,3.7-8.7c1.4-2.6,3-4.7,4.7-6.3c1.7-1.6,3.6-2.4,5.6-2.4c1.2,0,2.4,0.5,3.6,1.5
		c1.1,1,2.2,2.3,3.2,3.9c1,1.6,2,3.5,2.9,5.7c0.9,2.1,1.7,4.4,2.4,6.7c0.7,2.4,1.4,4.8,1.9,7.2c0.6,2.4,1.1,4.7,1.5,6.9
		c0.4,2.2,0.7,4.1,0.9,5.9c0.2,1.8,0.3,3.2,0.3,4.3c0,0.2,0,0.5,0,1c0,0.5,0,1,0,1.5c0,0.5,0,1,0,1.5c0,0.5,0,0.8,0,0.9
		c-0.6,1.6-1.3,2.8-2.2,3.7c-0.8,0.9-2.1,1.4-3.7,1.4c-1.2,0-2.3-0.4-3.1-1.3c-0.8-0.9-1.5-1.9-2-3.2c-0.6-1.3-1.1-2.7-1.5-4.2
		c-0.4-1.5-0.9-2.9-1.4-4.2c-0.5-1.3-1.1-2.4-1.8-3.2c-0.7-0.9-1.6-1.3-2.7-1.4C607.4,41.2,607,41.2,606.7,41.4z M605.1,31.4
		c0.2,0.1,0.5,0.2,0.7,0.3c0.3,0,0.5,0.1,0.8,0c0.3,0,0.5,0,0.6,0c0.8,0,1.4-0.1,1.9-0.5c0.5-0.3,0.9-0.7,1.2-1.2
		c0.3-0.5,0.5-1.1,0.6-1.7c0.1-0.6,0.2-1.3,0.2-2.1c0-0.2,0-0.7-0.1-1.4c0-0.7-0.1-1.2-0.1-1.4c-0.3-0.8-0.6-1.3-1.1-1.5
		c-0.4-0.2-1-0.2-1.6-0.2c-0.8,0-1.4,0.2-1.9,0.6c-0.5,0.4-0.9,0.9-1.1,1.6c-0.3,0.6-0.4,1.3-0.5,2c-0.1,0.7-0.1,1.4-0.1,2
		c0,0.1,0,0.3,0,0.6s0,0.6,0,0.9c0,0.3,0,0.6,0,0.9c0,0.3,0,0.5,0,0.6C604.8,31.1,604.9,31.3,605.1,31.4z"/>
	<path fill="#FFFFFF" d="M627.7,54.4c0-0.3,0-0.7,0-1c0-0.4,0-0.7,0-1c0-0.3,0-0.6,0-0.7c0-3,0.1-6.1,0.2-9.3
		c0.1-3.2,0.2-6.5,0.3-9.8c0.1-3.3,0.2-6.6,0.2-9.9c0.1-3.3,0.1-6.5,0-9.6c0.2-0.7,0.5-1.4,0.9-2c0.4-0.6,0.9-1.2,1.5-1.7
		c0.6-0.5,1.2-0.9,1.9-1.2c0.7-0.3,1.4-0.5,2.1-0.5c1.5,0,2.9,0.5,4.3,1.4c1.4,0.9,2.7,2.1,4,3.5c1.2,1.5,2.4,3.1,3.5,4.9
		c1.1,1.8,2.1,3.6,3,5.4c0.9,1.8,1.7,3.5,2.3,5.1c0.6,1.6,1.2,2.9,1.6,4l0.9-0.8c0-0.8,0-2,0-3.5c0-1.5,0-3.1,0.1-4.9
		c0-1.8,0.2-3.6,0.3-5.5c0.2-1.9,0.5-3.6,0.9-5.1c0.4-1.6,1-2.9,1.8-3.9c0.7-1.1,1.7-1.7,2.9-1.9c0.6-0.1,1.2,0,1.8,0.4
		s1.3,0.8,1.8,1.2c0.6,0.5,1.1,1,1.5,1.5c0.4,0.5,0.8,0.9,0.9,1.2c0.1,0.3,0.2,0.9,0.4,1.8c0.2,0.9,0.3,2,0.5,3.3
		c0.2,1.3,0.4,2.6,0.5,4c0.2,1.4,0.3,2.8,0.5,4c0.2,1.3,0.3,2.4,0.4,3.3c0.1,0.9,0.2,1.6,0.3,1.8c0,0,0,0.4,0,1.1c0,0.7,0,1.3,0,1.6
		c0,1.5,0,3.1,0,5c0,1.8-0.1,3.6-0.3,5.5c-0.2,1.9-0.5,3.6-0.9,5.4s-1,3.3-1.8,4.7c-0.8,1.4-1.8,2.5-3.1,3.3
		c-1.2,0.8-2.8,1.2-4.7,1.2c-1.1,0-2.2-0.5-3.3-1.4c-1.1-0.9-2.1-2.2-3.1-3.6c-1-1.5-2-3.1-3-4.9c-0.9-1.8-1.9-3.5-2.7-5.2
		c-0.9-1.7-1.7-3.2-2.6-4.5c-0.8-1.3-1.6-2.3-2.4-3c-0.1,1.1-0.1,2.4-0.1,4c0,1.6,0,3.2,0,5s-0.2,3.5-0.4,5.2
		c-0.2,1.8-0.5,3.3-1,4.7c-0.5,1.4-1.1,2.5-1.9,3.4c-0.8,0.9-1.9,1.3-3.3,1.3c-0.7,0-1.4,0-2-0.1c-0.6-0.1-1.1-0.2-1.7-0.4
		c-0.6-0.2-1.1-0.5-1.7-0.8c-0.6-0.4-1.2-0.8-1.9-1.4C627.7,54.9,627.7,54.7,627.7,54.4z"/>
	<path fill="#FFFFFF" d="M677.9,10.1c0.6,0.7,1.1,1.5,1.4,2.5c0.3,1,0.5,2,0.6,3.1c0.1,1.1,0.1,2.1,0.1,2.8c0,0.9,0,1.9-0.1,2.9
		c-0.1,1-0.3,1.9-0.6,2.8c-0.3,0.9-0.8,1.6-1.4,2.1c-0.6,0.6-1.5,0.8-2.5,0.8c-1.2,0-2.2-0.5-2.8-1.6c-0.6-1-1.1-2.3-1.3-3.7
		c-0.2-1.4-0.3-2.8-0.3-4.3c0-1.4,0-2.5,0-3.3c0-1.7,0.3-3,0.9-4c0.6-1,1.8-1.5,3.6-1.5C676.4,9.1,677.3,9.5,677.9,10.1z"/>
	<path fill="#FFFFFF" d="M681.7,13.5c0.2-0.8,0.5-1.5,1-2.2c0.4-0.7,1-1.3,1.7-1.8c0.7-0.5,1.4-0.9,2.3-1.1c0.4,0,1,0,1.9,0
		c1,0,2,0,3.1,0c1.1,0,2.1,0,3,0c1,0,1.6,0,2,0c1.1,0,2.3,0,3.9,0c1.5,0,3.1,0,4.7,0.2c1.6,0.1,3.3,0.4,4.9,0.7
		c1.6,0.3,3.1,0.9,4.4,1.6c1.3,0.7,2.3,1.7,3.2,2.8c0.8,1.2,1.2,2.6,1.2,4.4c0,1.2-0.5,2-1.4,2.5c-1,0.5-2.1,0.9-3.4,1
		c-1.3,0.2-2.6,0.3-4,0.2c-1.4,0-2.4,0-3.2,0l-0.8,0.8c0,0-0.1,0.7-0.2,1.8c-0.1,1.2-0.2,2.5-0.3,4c-0.1,1.5-0.2,2.9-0.2,4.3
		c-0.1,1.4-0.1,2.3-0.1,2.8c0,0.3,0,0.9,0,1.7c0,0.8,0,1.8,0,2.8c0,1.1,0,2.2,0,3.4c0,1.2,0,2.3,0,3.3c0,1.1,0,2,0,2.8
		c0,0.8,0,1.3,0,1.7c-0.5,1.2-0.8,2.2-1.1,3c-0.3,0.9-0.6,1.6-1,2.2c-0.4,0.6-0.9,1-1.6,1.3c-0.7,0.3-1.7,0.4-3,0.4
		c-0.5,0-1-0.1-1.5-0.4c-0.5-0.3-0.9-0.6-1.3-1.1c-0.4-0.4-0.7-0.9-1-1.5c-0.3-0.6-0.4-1.2-0.4-1.8V22.9c0-0.6-0.3-0.9-0.9-1.2
		c-0.6-0.2-1.4-0.4-2.4-0.5c-1-0.1-2-0.2-3.1-0.3c-1.1-0.1-2.1-0.3-3.1-0.6c-1-0.3-1.8-0.8-2.4-1.5c-0.6-0.7-0.9-1.6-0.9-2.8
		C681.4,15.1,681.5,14.3,681.7,13.5z"/>
	<path fill="#FFFFFF" d="M720.9,21.1c0.5-5.5,1.3-11,2.3-16.3c0.1-0.3,0.5-0.6,1.1-0.9c0.6-0.3,1.2-0.6,2-0.8
		c0.7-0.2,1.5-0.4,2.2-0.5s1.2-0.2,1.5-0.2c0.5,0,1.1,0.1,1.8,0.2c0.7,0.1,1.4,0.3,2,0.6c0.6,0.3,1.2,0.7,1.7,1.2
		c0.5,0.5,0.7,1.2,0.7,1.9v23.5c0,1.7-0.3,3.2-0.9,4.7c-0.6,1.5-1.4,2.8-2.4,3.9c-1,1.1-2.2,2-3.6,2.7c-1.4,0.7-2.8,1-4.4,1
		c-1.7,0-2.9-0.3-3.7-1c-0.7-0.7-1.1-1.9-1.1-3.6C720.2,32.1,720.4,26.6,720.9,21.1z M720.8,49c0.4-0.7,0.9-1.4,1.6-1.8
		c0.7-0.5,1.4-0.8,2.3-1c0.9-0.2,1.8-0.3,2.8-0.3c1.2,0,2.3,0.4,3.4,1.1c1,0.7,1.6,1.7,1.6,3.1c0,2.1-0.7,3.7-2.1,4.9
		c-1.4,1.2-3.1,1.8-5.1,1.8c-3.4,0-5.1-1.6-5.1-4.9C720.2,50.6,720.4,49.7,720.8,49z"/>
	<path fill="#FFFFFF" d="M7.3,134.7c0-0.1,0-0.2,0-0.3L23,111.7v-2.3c-1.8-1.6-3.9-3.2-6.2-4.9c-2.4-1.7-4.6-3.6-6.7-5.6
		c-2.1-2-3.9-4.2-5.4-6.5C3.2,90,2.5,87.6,2.5,85c0-1.1,0.1-2.2,0.3-3.3c0.2-1.1,0.6-2,1.1-2.8c0.5-0.8,1.2-1.5,2.1-2
		c0.9-0.5,2-0.7,3.3-0.7c1,0,1.9,0.1,2.8,0.2c0.9,0.1,1.6,0.6,2.1,1.4c0.2,0.4,0.8,1.2,1.5,2.2c0.8,1,1.7,2.2,2.7,3.6
		c1.1,1.4,2.2,2.9,3.4,4.4c1.2,1.5,2.3,3,3.4,4.4c1.1,1.4,2,2.6,2.7,3.7c0.8,1.1,1.3,1.8,1.5,2.1h1.1c0.9-1.8,1.8-4,2.6-6.6
		c0.8-2.6,1.7-5.1,2.8-7.5c1.1-2.4,2.4-4.5,4-6.2c1.6-1.7,3.7-2.6,6.2-2.6c1,0,1.9,0.2,2.7,0.7c0.8,0.5,1.5,1.1,2,1.9
		c0.6,0.8,1,1.6,1.3,2.6c0.3,0.9,0.5,1.8,0.5,2.7c0,1-0.4,2.6-1.2,4.8c-0.8,2.2-1.8,4.7-3.2,7.6c-1.4,2.9-2.9,6-4.7,9.3
		c-1.8,3.3-3.6,6.7-5.6,10c-2,3.4-4,6.6-6.1,9.7c-2.1,3.1-4.1,5.8-6,8.2c-2,2.4-3.8,4.2-5.5,5.7c-1.7,1.4-3.1,2.1-4.3,2.1
		c-0.9,0-1.8-0.1-2.8-0.2c-1-0.2-2-0.4-2.8-0.9c-0.9-0.4-1.6-1-2.2-1.7c-0.6-0.7-0.9-1.6-0.9-2.7C7.2,134.9,7.2,134.8,7.3,134.7z"/>
	<path fill="#FFFFFF" d="M55.8,98.5c1.1-4.2,2.7-8,4.8-11.4c2.1-3.4,4.8-6.1,8-8.2c3.2-2.1,6.9-3.2,11.2-3.2c3.5,0,6.8,0.5,9.8,1.6
		c3,1.1,5.6,2.6,7.8,4.7c2.2,2.1,3.9,4.7,5.1,7.8c1.2,3.1,1.9,6.7,1.9,10.9c0,4.7-0.8,9.3-2.3,13.8c-1.6,4.6-3.7,8.6-6.4,12.2
		c-2.7,3.6-6,6.5-9.7,8.7c-3.8,2.2-7.8,3.4-12.1,3.4c-3.8,0-6.9-0.7-9.4-2.2c-2.5-1.5-4.5-3.4-6-6c-1.5-2.5-2.6-5.4-3.2-8.8
		c-0.6-3.3-0.9-6.9-0.9-10.7C54.2,106.9,54.8,102.7,55.8,98.5z M76,117.5c0.9,0.2,1.8,0.4,2.9,0.4c1.5,0,2.7-0.4,3.8-1.3
		c1-0.8,1.9-1.9,2.5-3.1c0.7-1.2,1.1-2.6,1.4-4.1c0.3-1.5,0.4-3,0.4-4.4c0-0.9-0.1-1.9-0.3-2.8c-0.2-1-0.5-1.9-0.9-2.7
		c-0.4-0.8-0.9-1.5-1.6-2c-0.7-0.5-1.5-0.8-2.4-0.8c-1.6,0-2.9,0.4-4,1.1c-1,0.7-1.8,1.7-2.4,2.9c-0.6,1.2-0.9,2.6-1.1,4
		c-0.2,1.5-0.3,3-0.3,4.5c0,0.2,0,0.6,0,1.1c0,0.6,0,1.2,0,1.8c0,0.7,0.1,1.3,0.1,1.8c0,0.6,0,0.9,0,1.1
		C74.5,116.5,75.1,117.3,76,117.5z"/>
	<path fill="#FFFFFF" d="M118.1,74.9c1,0.1,1.7,0.9,2,2.2c0.6,1.7,1,3.1,1.3,4.3c0.3,1.2,0.5,2.3,0.7,3.3c0.2,1,0.3,2,0.3,3.1
		c0.1,1,0.1,2.2,0.1,3.6c0,1.8,0,4-0.1,6.6c-0.1,2.6-0.2,5.3-0.3,8.1c-0.1,2.8-0.2,5.5-0.3,8.1c-0.1,2.6-0.1,4.8-0.1,6.6
		c2.7,0.1,4.8-0.4,6.3-1.7c1.5-1.3,2.7-3,3.4-5.2c0.8-2.2,1.3-4.7,1.4-7.4c0.2-2.8,0.3-5.6,0.3-8.6c0-3,0-5.9,0-8.7
		c0-2.8,0.2-5.3,0.6-7.5c0.4-2.2,1-4,2-5.4c1-1.4,2.4-2,4.3-2c2.2,0,3.9,0.7,5.2,2c1.3,1.3,2.2,2.9,2.8,4.8c0.6,1.9,1,3.8,1.2,5.8
		c0.2,2,0.2,3.7,0.2,5.2c0,2.7-0.1,5.7-0.2,9.2c-0.2,3.4-0.5,7-1.1,10.6c-0.6,3.6-1.3,7.1-2.4,10.5c-1,3.4-2.4,6.5-4.1,9.1
		c-1.7,2.7-3.9,4.8-6.4,6.5c-2.5,1.6-5.6,2.5-9.1,2.5c-0.1,0-0.6,0-1.5,0c-1,0-2.2-0.1-3.7-0.3c-1.5-0.2-3.1-0.4-4.8-0.8
		c-1.7-0.4-3.3-0.9-4.7-1.6c-1.5-0.7-2.7-1.6-3.6-2.7c-1-1.1-1.4-2.5-1.4-4.1l-0.2-49c0-1.2,0.3-2.3,0.8-3.2
		c0.6-0.9,1.3-1.6,2.1-2.2c0.8-0.6,1.8-1,2.8-1.3c1.1-0.3,2.1-0.4,3.2-0.4C116.1,74.7,117.1,74.8,118.1,74.9z"/>
	<path fill="#FFC20E" d="M189.4,101.4c0.5-2.8,1.3-5.5,2.3-8.4c1-2.8,2.3-5.6,3.8-8.3c1.5-2.7,3.2-5.2,5.1-7.3
		c1.9-2.1,4-3.9,6.3-5.2c2.3-1.3,4.7-2,7.4-2c1.9,0,3.9,0.3,6.2,1c2.3,0.7,4.5,1.6,6.5,2.8c2,1.2,3.7,2.7,5.1,4.5
		c1.4,1.8,2.1,3.7,2.1,5.9c0,2.2-0.4,3.8-1.2,4.9c-0.8,1.1-1.9,1.9-3.2,2.4c-1.3,0.5-2.8,0.8-4.5,0.8c-1.7,0.1-3.4,0.2-5.2,0.3
		c-1.8,0.1-3.5,0.3-5.2,0.7c-1.7,0.3-3.2,1-4.5,2c-1.3,1-2.4,2.4-3.2,4.3c-0.8,1.9-1.2,4.4-1.2,7.5c0,1.2,0.2,2.6,0.5,4.1
		c0.3,1.5,0.8,2.9,1.5,4.3c0.7,1.3,1.6,2.4,2.7,3.3c1.1,0.9,2.5,1.3,4.2,1.3c0.1,0,0.2,0,0.4,0c0.1,0,0.2,0,0.3-0.1
		c0.3-0.1,1.1-0.3,2.3-0.6c1.2-0.3,2.6-0.7,4-1.1c1.4-0.4,2.8-0.8,4-1.1c1.3-0.3,2.1-0.5,2.4-0.6c0.1,0,0.2,0,0.6,0
		c0.3,0,0.5,0,0.7,0c2.7,0,4.5,0.7,5.5,2c1,1.3,1.5,3.1,1.5,5.3c0,2.6-0.7,4.9-2,6.9c-1.3,2-3,3.7-5.1,5.1c-2,1.4-4.3,2.4-6.8,3.1
		c-2.5,0.7-4.9,1.1-7.2,1.1c-4.5,0-8.4-0.9-11.7-2.6c-3.4-1.7-6.1-4-8.4-6.9c-2.2-2.9-3.9-6.3-5-10c-1.1-3.8-1.7-7.8-1.7-12
		C188.6,106.5,188.9,104.1,189.4,101.4z"/>
	<path fill="#FFC20E" d="M259.1,119.4c-0.5,0.2-1,0.5-1.6,1c-0.1,1.1-0.2,2.3-0.3,3.9c-0.2,1.5-0.4,3.1-0.7,4.7
		c-0.3,1.6-0.7,3.2-1.3,4.7c-0.5,1.5-1.2,2.8-2.1,3.9c-0.9,1.1-2,1.9-3.3,2.4c-1.3,0.5-2.9,0.6-4.7,0.2c-0.1,0-0.4-0.1-0.9-0.4
		c-0.5-0.3-1.1-0.6-1.8-0.9c-0.7-0.3-1.3-0.7-2-1c-0.7-0.3-1.2-0.6-1.5-0.9c-0.1-0.1-0.3-0.3-0.6-0.6c-0.2-0.3-0.4-0.5-0.5-0.6
		c0-0.2,0-0.5,0-1c0-0.6,0-1.1,0-1.7c0-0.6,0-1.1,0-1.6c0-0.6,0-0.9,0-1.1c0-2.3,0.2-5.3,0.7-9.1c0.5-3.8,1.2-7.8,2.2-12
		c1-4.2,2.2-8.5,3.6-12.8c1.4-4.3,3.1-8.2,5-11.7c1.9-3.5,4-6.3,6.3-8.5c2.3-2.2,4.8-3.3,7.5-3.3c1.7,0,3.3,0.7,4.8,2
		c1.5,1.3,3,3.1,4.3,5.3c1.4,2.2,2.7,4.7,3.9,7.6c1.2,2.9,2.3,5.9,3.3,9c1,3.2,1.8,6.4,2.6,9.6c0.8,3.3,1.4,6.3,2,9.2
		c0.5,2.9,0.9,5.5,1.2,7.9c0.3,2.4,0.4,4.3,0.4,5.7c0,0.2,0,0.7,0,1.3c0,0.6,0,1.3,0,2c0,0.7,0,1.4,0,2c0,0.6,0,1,0,1.2
		c-0.8,2.1-1.8,3.8-2.9,5c-1.1,1.2-2.8,1.8-5,1.8c-1.7,0-3-0.6-4.1-1.7c-1.1-1.1-2-2.6-2.7-4.3c-0.7-1.7-1.4-3.6-2-5.6
		c-0.6-2-1.2-3.9-1.9-5.6c-0.7-1.7-1.5-3.2-2.5-4.3c-1-1.1-2.2-1.8-3.7-1.8C260.1,119.2,259.5,119.3,259.1,119.4z M257,106.1
		c0.3,0.2,0.6,0.3,1,0.4c0.3,0.1,0.7,0.1,1,0c0.3,0,0.6,0,0.8,0c1.1,0,1.9-0.2,2.6-0.6c0.7-0.4,1.2-0.9,1.6-1.6
		c0.4-0.7,0.6-1.5,0.8-2.3c0.2-0.9,0.2-1.8,0.2-2.8c0-0.3,0-0.9-0.1-1.9c-0.1-1-0.1-1.6-0.2-1.9c-0.4-1.1-0.9-1.8-1.4-2
		c-0.6-0.2-1.3-0.3-2.1-0.3c-1.1,0-1.9,0.3-2.6,0.8c-0.7,0.6-1.1,1.3-1.5,2.1c-0.3,0.8-0.6,1.7-0.7,2.7c-0.1,1-0.1,1.9-0.1,2.7
		c0,0.1,0,0.4,0,0.7s0,0.8,0,1.2c0,0.4,0,0.8,0,1.2c0,0.4,0,0.7,0,0.8C256.5,105.6,256.7,105.9,257,106.1z"/>
	<path fill="#FFC20E" d="M287.2,136.9c0-0.4,0-0.9,0-1.4c0-0.5,0-1,0-1.4c0-0.4,0-0.7,0-0.9c0-4,0.1-8.1,0.2-12.5
		c0.2-4.3,0.3-8.7,0.4-13.2c0.1-4.4,0.2-8.9,0.3-13.3c0.1-4.4,0.1-8.7,0-12.8c0.2-0.9,0.7-1.8,1.3-2.7c0.6-0.8,1.3-1.6,2-2.2
		c0.8-0.7,1.6-1.2,2.6-1.6c1-0.4,1.9-0.6,2.8-0.6c2,0,3.9,0.6,5.8,1.8c1.9,1.2,3.7,2.8,5.4,4.7c1.7,2,3.3,4.1,4.7,6.6
		c1.5,2.4,2.8,4.8,4,7.3c1.2,2.4,2.2,4.7,3.1,6.9c0.9,2.2,1.6,3.9,2.1,5.3l1.2-1.1c0-1.1,0-2.7,0-4.7c0-2,0-4.2,0.1-6.6
		c0.1-2.4,0.2-4.8,0.5-7.4c0.2-2.5,0.7-4.8,1.3-6.9c0.6-2.1,1.4-3.8,2.4-5.3c1-1.4,2.3-2.3,3.9-2.5c0.7-0.1,1.5,0,2.4,0.5
		c0.9,0.5,1.7,1,2.5,1.7c0.8,0.7,1.5,1.3,2,2c0.6,0.7,1,1.2,1.3,1.6c0.1,0.4,0.3,1.2,0.5,2.4c0.2,1.2,0.4,2.7,0.7,4.4
		c0.2,1.7,0.5,3.5,0.7,5.4c0.2,1.9,0.4,3.7,0.7,5.4c0.2,1.7,0.4,3.2,0.6,4.5c0.2,1.3,0.3,2.1,0.4,2.5c0,0.1,0,0.6,0,1.5
		c0,1,0,1.7,0,2.2c0,2,0,4.2,0,6.7c0,2.4-0.1,4.9-0.4,7.4c-0.2,2.5-0.6,4.9-1.2,7.2c-0.5,2.3-1.3,4.4-2.4,6.2
		c-1.1,1.8-2.5,3.3-4.1,4.4s-3.8,1.6-6.2,1.6c-1.5,0-2.9-0.6-4.4-1.9c-1.4-1.3-2.8-2.9-4.2-4.8c-1.4-2-2.7-4.1-4-6.5
		c-1.3-2.4-2.5-4.7-3.7-6.9c-1.2-2.2-2.3-4.2-3.4-6c-1.1-1.8-2.2-3.1-3.2-4c-0.1,1.4-0.2,3.2-0.1,5.3c0,2.1,0,4.3,0,6.7
		c-0.1,2.3-0.2,4.7-0.5,7c-0.3,2.4-0.7,4.5-1.3,6.3c-0.6,1.9-1.5,3.4-2.6,4.5c-1.1,1.1-2.6,1.7-4.4,1.7c-1,0-1.9,0-2.7-0.1
		c-0.8-0.1-1.5-0.3-2.3-0.5c-0.7-0.2-1.5-0.6-2.2-1.1c-0.7-0.5-1.6-1.1-2.6-1.9C287.2,137.6,287.2,137.3,287.2,136.9z"/>
	<path fill="#FFFFFF" d="M397.6,76.3c1.5,1.8,2.7,4.1,3.6,6.8c0.9,2.8,1.6,5.8,2,9.3c0.5,3.4,0.8,6.7,0.9,9.9
		c0.2,3.2,0.2,6.1,0.2,8.8c0,2.7,0,4.7,0,6c0,2.4-0.1,5-0.2,7.9c-0.1,2.8-0.6,5.5-1.4,7.9c-0.8,2.5-2.2,4.5-4,6.1
		c-1.8,1.6-4.4,2.4-7.8,2.4c-1,0-2-0.1-3.1-0.4c-1.1-0.3-2-0.7-2.8-1.3c-0.8-0.6-1.5-1.3-2-2.2c-0.5-0.9-0.8-1.9-0.8-3.2l-0.1-50.2
		c0-1.3,0.3-2.6,0.8-3.8c0.5-1.2,1.3-2.4,2.2-3.4c0.9-1,2-1.8,3.2-2.4c1.2-0.6,2.4-0.9,3.7-0.9C394.3,73.6,396.1,74.5,397.6,76.3z"
		/>
	<path fill="#FFFFFF" d="M406.3,136.9c0-0.4,0-0.9,0-1.4c0-0.5,0-1,0-1.4c0-0.4,0-0.7,0-0.9c0-4,0.1-8.1,0.2-12.5
		c0.2-4.3,0.3-8.7,0.4-13.2c0.1-4.4,0.2-8.9,0.3-13.3c0.1-4.4,0.1-8.7,0-12.8c0.2-0.9,0.7-1.8,1.3-2.7c0.6-0.8,1.3-1.6,2-2.2
		c0.8-0.7,1.6-1.2,2.6-1.6c1-0.4,1.9-0.6,2.8-0.6c2,0,3.9,0.6,5.8,1.8c1.9,1.2,3.7,2.8,5.4,4.7c1.7,2,3.3,4.1,4.7,6.6
		c1.5,2.4,2.8,4.8,4,7.3c1.2,2.4,2.2,4.7,3.1,6.9c0.9,2.2,1.6,3.9,2.1,5.3l1.2-1.1c0-1.1,0-2.7,0-4.7c0-2,0-4.2,0.1-6.6
		c0.1-2.4,0.2-4.8,0.5-7.4c0.2-2.5,0.7-4.8,1.3-6.9c0.6-2.1,1.4-3.8,2.4-5.3c1-1.4,2.3-2.3,3.9-2.5c0.7-0.1,1.6,0,2.4,0.5
		c0.9,0.5,1.7,1,2.5,1.7c0.8,0.7,1.5,1.3,2,2c0.6,0.7,1,1.2,1.3,1.6c0.1,0.4,0.3,1.2,0.5,2.4c0.2,1.2,0.4,2.7,0.7,4.4
		c0.2,1.7,0.5,3.5,0.7,5.4c0.2,1.9,0.4,3.7,0.7,5.4c0.2,1.7,0.4,3.2,0.6,4.5c0.2,1.3,0.3,2.1,0.4,2.5c0,0.1,0,0.6,0,1.5
		c0,1,0,1.7,0,2.2c0,2,0,4.2,0,6.7c0,2.4-0.1,4.9-0.4,7.4c-0.2,2.5-0.6,4.9-1.2,7.2s-1.3,4.4-2.4,6.2c-1.1,1.8-2.5,3.3-4.1,4.4
		c-1.7,1.1-3.8,1.6-6.2,1.6c-1.5,0-2.9-0.6-4.4-1.9c-1.4-1.3-2.8-2.9-4.2-4.8c-1.4-2-2.7-4.1-4-6.5c-1.3-2.4-2.5-4.7-3.7-6.9
		c-1.2-2.2-2.3-4.2-3.4-6c-1.1-1.8-2.2-3.1-3.2-4c-0.1,1.4-0.2,3.2-0.1,5.3c0,2.1,0,4.3,0,6.7c-0.1,2.3-0.2,4.7-0.5,7
		c-0.3,2.4-0.7,4.5-1.3,6.3c-0.6,1.9-1.5,3.4-2.6,4.5c-1.1,1.1-2.6,1.7-4.4,1.7c-1,0-1.9,0-2.7-0.1c-0.8-0.1-1.5-0.3-2.3-0.5
		c-0.7-0.2-1.5-0.6-2.2-1.1c-0.7-0.5-1.6-1.1-2.6-1.9C406.3,137.6,406.3,137.3,406.3,136.9z"/>
	<path fill="#FFC20E" d="M502.1,101.4c0.5-2.8,1.3-5.5,2.3-8.4c1-2.8,2.3-5.6,3.8-8.3c1.5-2.7,3.2-5.2,5.1-7.3
		c1.9-2.1,4-3.9,6.3-5.2c2.3-1.3,4.7-2,7.4-2c1.9,0,3.9,0.3,6.2,1c2.3,0.7,4.5,1.6,6.5,2.8c2,1.2,3.7,2.7,5.1,4.5
		c1.4,1.8,2.1,3.7,2.1,5.9c0,2.2-0.4,3.8-1.2,4.9c-0.8,1.1-1.9,1.9-3.2,2.4c-1.3,0.5-2.8,0.8-4.5,0.8c-1.7,0.1-3.4,0.2-5.2,0.3
		c-1.8,0.1-3.5,0.3-5.2,0.7c-1.7,0.3-3.2,1-4.5,2c-1.3,1-2.4,2.4-3.2,4.3c-0.8,1.9-1.2,4.4-1.2,7.5c0,1.2,0.2,2.6,0.5,4.1
		c0.3,1.5,0.8,2.9,1.5,4.3c0.7,1.3,1.6,2.4,2.7,3.3c1.1,0.9,2.5,1.3,4.2,1.3c0.1,0,0.2,0,0.4,0c0.1,0,0.2,0,0.3-0.1
		c0.3-0.1,1.1-0.3,2.3-0.6c1.2-0.3,2.6-0.7,4-1.1c1.4-0.4,2.8-0.8,4-1.1c1.3-0.3,2.1-0.5,2.4-0.6c0.1,0,0.2,0,0.6,0
		c0.3,0,0.5,0,0.7,0c2.7,0,4.5,0.7,5.5,2c1,1.3,1.5,3.1,1.5,5.3c0,2.6-0.7,4.9-2,6.9c-1.3,2-3,3.7-5.1,5.1c-2,1.4-4.3,2.4-6.8,3.1
		c-2.5,0.7-4.9,1.1-7.2,1.1c-4.5,0-8.4-0.9-11.7-2.6c-3.4-1.7-6.1-4-8.4-6.9c-2.2-2.9-3.9-6.3-5-10c-1.1-3.8-1.7-7.8-1.7-12
		C501.3,106.5,501.5,104.1,502.1,101.4z"/>
	<path fill="#FFC20E" d="M571.8,119.4c-0.5,0.2-1,0.5-1.6,1c-0.1,1.1-0.2,2.3-0.3,3.9c-0.2,1.5-0.4,3.1-0.7,4.7
		c-0.3,1.6-0.7,3.2-1.3,4.7c-0.5,1.5-1.2,2.8-2.1,3.9c-0.9,1.1-2,1.9-3.3,2.4c-1.3,0.5-2.9,0.6-4.7,0.2c-0.1,0-0.4-0.1-0.9-0.4
		c-0.5-0.3-1.1-0.6-1.8-0.9c-0.7-0.3-1.3-0.7-2-1c-0.7-0.3-1.2-0.6-1.5-0.9c-0.1-0.1-0.3-0.3-0.6-0.6c-0.2-0.3-0.4-0.5-0.5-0.6
		c0-0.2,0-0.5,0-1c0-0.6,0-1.1,0-1.7c0-0.6,0-1.1,0-1.6c0-0.6,0-0.9,0-1.1c0-2.3,0.2-5.3,0.7-9.1c0.5-3.8,1.2-7.8,2.2-12
		c1-4.2,2.2-8.5,3.6-12.8c1.4-4.3,3.1-8.2,5-11.7c1.9-3.5,4-6.3,6.3-8.5c2.3-2.2,4.8-3.3,7.5-3.3c1.7,0,3.3,0.7,4.8,2s3,3.1,4.3,5.3
		c1.4,2.2,2.7,4.7,3.9,7.6c1.2,2.9,2.3,5.9,3.3,9c1,3.2,1.8,6.4,2.6,9.6c0.8,3.3,1.4,6.3,2,9.2c0.5,2.9,0.9,5.5,1.2,7.9
		c0.3,2.4,0.4,4.3,0.4,5.7c0,0.2,0,0.7,0,1.3c0,0.6,0,1.3,0,2c0,0.7,0,1.4,0,2c0,0.6,0,1,0,1.2c-0.8,2.1-1.8,3.8-2.9,5
		c-1.1,1.2-2.8,1.8-5,1.8c-1.7,0-3-0.6-4.1-1.7c-1.1-1.1-2-2.6-2.7-4.3c-0.7-1.7-1.4-3.6-2-5.6c-0.6-2-1.2-3.9-1.9-5.6
		c-0.7-1.7-1.5-3.2-2.5-4.3c-1-1.1-2.2-1.8-3.7-1.8C572.8,119.2,572.2,119.3,571.8,119.4z M569.7,106.1c0.3,0.2,0.6,0.3,1,0.4
		c0.3,0.1,0.7,0.1,1,0c0.3,0,0.6,0,0.8,0c1.1,0,1.9-0.2,2.6-0.6c0.7-0.4,1.2-0.9,1.6-1.6c0.4-0.7,0.6-1.5,0.8-2.3
		c0.2-0.9,0.2-1.8,0.2-2.8c0-0.3,0-0.9-0.1-1.9c-0.1-1-0.1-1.6-0.2-1.9c-0.4-1.1-0.9-1.8-1.4-2c-0.6-0.2-1.3-0.3-2.1-0.3
		c-1.1,0-1.9,0.3-2.6,0.8c-0.7,0.6-1.1,1.3-1.5,2.1c-0.3,0.8-0.6,1.7-0.7,2.7c-0.1,1-0.1,1.9-0.1,2.7c0,0.1,0,0.4,0,0.7s0,0.8,0,1.2
		c0,0.4,0,0.8,0,1.2c0,0.4,0,0.7,0,0.8C569.2,105.6,569.4,105.9,569.7,106.1z"/>
	<path fill="#FFC20E" d="M599.9,136.9c0-0.4,0-0.9,0-1.4c0-0.5,0-1,0-1.4c0-0.4,0-0.7,0-0.9c0-4,0.1-8.1,0.2-12.5
		c0.2-4.3,0.3-8.7,0.4-13.2c0.1-4.4,0.2-8.9,0.3-13.3c0.1-4.4,0.1-8.7,0-12.8c0.2-0.9,0.7-1.8,1.3-2.7c0.6-0.8,1.3-1.6,2-2.2
		c0.8-0.7,1.6-1.2,2.6-1.6c1-0.4,1.9-0.6,2.8-0.6c2,0,3.9,0.6,5.8,1.8c1.9,1.2,3.7,2.8,5.4,4.7s3.3,4.1,4.7,6.6
		c1.5,2.4,2.8,4.8,4,7.3c1.2,2.4,2.2,4.7,3.1,6.9c0.9,2.2,1.6,3.9,2.1,5.3l1.2-1.1c0-1.1,0-2.7,0-4.7c0-2,0-4.2,0.1-6.6
		c0.1-2.4,0.2-4.8,0.5-7.4c0.2-2.5,0.7-4.8,1.3-6.9c0.6-2.1,1.4-3.8,2.4-5.3c1-1.4,2.3-2.3,3.9-2.5c0.7-0.1,1.5,0,2.4,0.5
		c0.9,0.5,1.7,1,2.5,1.7c0.8,0.7,1.5,1.3,2,2c0.6,0.7,1,1.2,1.3,1.6c0.1,0.4,0.3,1.2,0.5,2.4c0.2,1.2,0.4,2.7,0.7,4.4
		c0.2,1.7,0.5,3.5,0.7,5.4c0.2,1.9,0.4,3.7,0.7,5.4c0.2,1.7,0.4,3.2,0.6,4.5c0.2,1.3,0.3,2.1,0.4,2.5c0,0.1,0,0.6,0,1.5
		c0,1,0,1.7,0,2.2c0,2,0,4.2,0,6.7c0,2.4-0.1,4.9-0.4,7.4c-0.2,2.5-0.6,4.9-1.2,7.2c-0.5,2.3-1.3,4.4-2.4,6.2
		c-1.1,1.8-2.5,3.3-4.1,4.4c-1.7,1.1-3.8,1.6-6.2,1.6c-1.5,0-2.9-0.6-4.4-1.9c-1.4-1.3-2.8-2.9-4.2-4.8c-1.4-2-2.7-4.1-4-6.5
		c-1.3-2.4-2.5-4.7-3.7-6.9c-1.2-2.2-2.3-4.2-3.4-6c-1.1-1.8-2.2-3.1-3.2-4c-0.1,1.4-0.2,3.2-0.1,5.3c0,2.1,0,4.3,0,6.7
		c-0.1,2.3-0.2,4.7-0.5,7c-0.3,2.4-0.7,4.5-1.3,6.3c-0.6,1.9-1.5,3.4-2.6,4.5c-1.1,1.1-2.6,1.7-4.4,1.7c-1,0-1.9,0-2.7-0.1
		c-0.8-0.1-1.5-0.3-2.3-0.5c-0.7-0.2-1.5-0.6-2.2-1.1c-0.7-0.5-1.6-1.1-2.6-1.9C599.9,137.6,599.9,137.3,599.9,136.9z"/>
	<path fill="#FFFFFF" d="M658.8,126.7c-0.1-3.5-0.2-7-0.4-10.5c-0.2-3.5-0.4-7-0.6-10.5c-0.2-3.5-0.3-7.1-0.3-10.8
		c0-0.4,0-1.2,0-2.5s0-2.7,0-4.3c0-1.5,0-3,0-4.3s0-2.1,0-2.5c0.7-1.7,1.4-3.2,2-4.4c0.6-1.2,1.2-2.2,2-2.9c0.8-0.7,1.8-1.2,2.9-1.5
		c1.2-0.3,2.8-0.5,4.8-0.5c1.1,0,2,0.3,2.8,0.9c0.7,0.6,1.3,1.3,1.8,2.2c0.5,0.9,0.8,1.9,1,3c0.2,1.1,0.3,2.2,0.3,3.3l0.2,36.9
		c0,1.1,0.6,1.8,1.8,2c1.2,0.2,2.7,0.2,4.5,0.2c1.8-0.1,3.7-0.1,5.8-0.2c2.1-0.1,4,0.1,5.8,0.6c1.8,0.5,3.3,1.4,4.5,2.7
		c1.2,1.3,1.8,3.4,1.8,6.2c0,2.5-0.8,4.5-2.4,6c-1.6,1.5-3.5,2.7-5.9,3.5c-2.3,0.8-4.8,1.3-7.4,1.6c-2.6,0.3-4.8,0.4-6.7,0.4
		c-3.2,0-6.4-0.2-9.4-0.6c-3.1-0.4-6.1-1.4-9.1-2.9C658.8,133.9,658.9,130.2,658.8,126.7z"/>
	<path fill="#FFFFFF" d="M702.3,95.3c0.5-2.8,1.4-5.4,2.6-7.7c1.2-2.3,2.8-4.4,4.7-6.2c1.9-1.8,4.2-3.4,7-4.6c0.3,0,0.8,0,1.5,0
		c0.7,0,1.5,0,2.3,0c0.8,0,1.5,0,2.2,0c0.7,0,1.2,0,1.5,0c1.7,0,3.6,0,5.7,0c2.1,0,4,0.2,5.9,0.6c1.8,0.4,3.4,1.3,4.6,2.5
		c1.2,1.2,1.9,3.1,1.9,5.6c0,0.5-0.1,1.1-0.4,1.9c-0.2,0.7-0.6,1.5-1,2.1c-0.4,0.7-0.9,1.3-1.5,1.7c-0.6,0.5-1.2,0.7-1.8,0.7h-18.5
		c-0.1,0-0.3,0.2-0.6,0.7c-0.3,0.4-0.5,0.8-0.5,1.1c-0.1,0.2-0.1,0.5,0,0.9c0,0.4,0.1,0.9,0.1,1.3c0.1,0.5,0.1,0.9,0.2,1.3
		c0.1,0.4,0.1,0.7,0.1,0.9c1.3,0,2.6-0.1,3.8-0.3c1.2-0.2,2.4-0.5,3.6-0.7c1.2-0.3,2.4-0.5,3.6-0.7c1.2-0.2,2.4-0.3,3.7-0.3
		c0.7,0,1.6,0.1,2.8,0.3c1.2,0.2,2.3,0.6,3.5,1.1c1.1,0.5,2.1,1.1,3,1.9c0.8,0.7,1.3,1.7,1.3,2.8c0,2.8-0.6,4.9-1.7,6.2
		c-1.1,1.4-2.6,2.3-4.3,2.9c-1.7,0.6-3.6,0.9-5.6,1c-2,0.1-3.8,0.3-5.6,0.6c-1.7,0.3-3.2,0.9-4.3,1.8c-1.1,0.9-1.7,2.4-1.7,4.5
		c0,0.9,0.3,1.5,0.9,1.8c0.6,0.3,1.3,0.5,2.1,0.5c0.1,0,0.2,0,0.5-0.1c0.4-0.1,1.3-0.3,2.5-0.7c1.2-0.4,2.6-0.8,4.1-1.2
		c1.5-0.4,2.9-0.8,4.3-1.1c1.4-0.3,2.4-0.5,3.1-0.5c0.9,0,1.8,0.2,2.7,0.6c1,0.4,1.8,0.9,2.7,1.5c0.8,0.7,1.5,1.4,2,2.3
		c0.5,0.9,0.8,1.8,0.8,2.8c0,3-0.9,5.4-2.8,7.2c-1.9,1.7-4.2,3.1-6.8,4c-2.7,0.9-5.5,1.5-8.4,1.7c-2.9,0.2-5.4,0.4-7.4,0.4
		c-0.2,0-0.7,0-1.4,0c-0.7,0-1.4,0-2.1,0c-0.7,0-1.5,0-2.1,0c-0.6,0-1.1,0-1.3,0c-2.2-0.7-4.1-1.7-5.5-3.2c-1.4-1.4-2.6-3.1-3.4-4.9
		c-0.9-1.9-1.5-3.9-1.9-6.1c-0.4-2.2-0.6-4.4-0.7-6.7c-0.1-2.2-0.2-4.5-0.1-6.7c0-2.2,0-4.2,0-6.1
		C701.5,101.1,701.8,98.1,702.3,95.3z"/>
	<path fill="#FFFFFF" d="M752.2,134.7c0-0.1,0-0.2,0-0.3l15.7-22.7v-2.3c-1.8-1.6-3.9-3.2-6.2-4.9c-2.4-1.7-4.6-3.6-6.7-5.6
		c-2.1-2-3.9-4.2-5.4-6.5c-1.5-2.3-2.2-4.7-2.2-7.4c0-1.1,0.1-2.2,0.3-3.3c0.2-1.1,0.6-2,1.1-2.8c0.5-0.8,1.2-1.5,2.1-2
		c0.9-0.5,2-0.7,3.3-0.7c1,0,1.9,0.1,2.8,0.2c0.9,0.1,1.6,0.6,2.1,1.4c0.2,0.4,0.8,1.2,1.5,2.2c0.8,1,1.7,2.2,2.7,3.6
		c1.1,1.4,2.2,2.9,3.4,4.4c1.2,1.5,2.3,3,3.3,4.4c1.1,1.4,2,2.6,2.7,3.7c0.8,1.1,1.3,1.8,1.5,2.1h1.1c0.9-1.8,1.8-4,2.6-6.6
		c0.8-2.6,1.7-5.1,2.8-7.5c1.1-2.4,2.4-4.5,4-6.2c1.6-1.7,3.7-2.6,6.2-2.6c1,0,1.9,0.2,2.7,0.7c0.8,0.5,1.5,1.1,2,1.9
		c0.6,0.8,1,1.6,1.3,2.6s0.5,1.8,0.5,2.7c0,1-0.4,2.6-1.2,4.8c-0.8,2.2-1.8,4.7-3.2,7.6c-1.4,2.9-2.9,6-4.7,9.3
		c-1.8,3.3-3.6,6.7-5.6,10c-2,3.4-4,6.6-6.1,9.7c-2.1,3.1-4.1,5.8-6,8.2c-2,2.4-3.8,4.2-5.5,5.7c-1.7,1.4-3.1,2.1-4.3,2.1
		c-0.9,0-1.8-0.1-2.8-0.2c-1-0.2-2-0.4-2.8-0.9c-0.9-0.4-1.6-1-2.2-1.7c-0.6-0.7-0.9-1.6-0.9-2.7
		C752.2,134.9,752.2,134.8,752.2,134.7z"/>
</g>
</svg>
